<?xml version="1.0" standalone="no"?>
<!DOCTYPE svg PUBLIC "-//W3C//DTD SVG 20010904//EN"
 "http://www.w3.org/TR/2001/REC-SVG-20010904/DTD/svg10.dtd">
<svg version="1.0" xmlns="http://www.w3.org/2000/svg"
 width="512.000000pt" height="512.000000pt" viewBox="0 0 512.000000 512.000000"
 preserveAspectRatio="xMidYMid meet">
<metadata>
Created by potrace 1.14, written by Peter Selinger 2001-2017
</metadata>
<g transform="translate(0.000000,512.000000) scale(0.100000,-0.100000)"
fill="#000000" stroke="none">
<path d="M2278 4785 c-872 -119 -1577 -701 -1848 -1525 -84 -255 -116 -482
-107 -774 10 -342 76 -612 228 -922 323 -662 981 -1133 1717 -1228 160 -21
424 -21 584 0 784 101 1470 624 1775 1354 111 266 162 508 170 806 6 209 -4
326 -43 521 -169 847 -860 1549 -1704 1732 -237 51 -554 65 -772 36z m737
-1015 c163 -50 309 -143 446 -281 87 -89 132 -159 164 -257 19 -60 53 -88 117
-98 28 -5 47 -18 77 -54 23 -27 41 -50 41 -53 0 -2 -52 -52 -117 -111 l-116
-107 -48 47 c-36 36 -49 57 -54 88 -9 51 -36 82 -100 112 -71 34 -130 32 -186
-5 -68 -45 -191 -150 -333 -284 l-128 -121 -60 62 -59 61 180 177 c192 188
238 246 282 358 55 139 29 246 -80 332 -64 51 -173 116 -225 135 -100 36 81
35 199 -1z m-346 -1104 l63 -63 -259 -269 c-537 -558 -724 -750 -760 -776 -53
-40 -93 -45 -149 -18 -89 44 -129 149 -85 230 12 23 205 192 567 497 302 254
551 462 554 462 3 1 34 -28 69 -63z"/>
</g>
</svg>
